<svg xmlns="http://www.w3.org/2000/svg" version="1.1" xmlns:xlink="http://www.w3.org/1999/xlink" xmlns:svgjs="http://svgjs.dev/svgjs" width="100%" height="100%" viewBox="0 0 1000 600"><rect width="1000" height="600" x="0" y="0" fill="none"/><g><rect width="333.3333333333333" height="333.3333333333333" rx="13.333333333333334" ry="13.333333333333334" y="174.92529399883267" fill="#fff1f1" transform="matrix(0.8185820297118414,0,0,0.8185820297118414,0,20.378939548439376)" x="152.7030792236328"/><path d="M291.1500527714204 347.1572347421402L291.1500527714204 416.5919672942905L274.3668358389661 416.5919672942905L274.3668358389661 266.59196596048025L364.3726641451316 266.59196596048025L364.3726641451316 281.2772807763778L291.1500527714204 281.2772807763778L291.1500527714204 332.47191992624266L360.5847853235707 332.47191992624266L360.5847853235707 347.1572347421402L291.1500527714204 347.1572347421402Z " fill="#ed1515" transform="matrix(0.8185820297118414,0,0,0.8185820297118414,0,20.378939548439376)"/><path d="M582.4984546717322 330.43485103163437L582.4984546717322 384.75030662510187L569.3697503402857 384.75030662510187L569.3697503402857 267.41251166279784L639.776985895561 267.41251166279784L639.776985895561 278.9001279528136L582.4984546717322 278.9001279528136L582.4984546717322 318.94723474161856L636.8139102651996 318.94723474161856L636.8139102651996 330.43485103163437L582.4984546717322 330.43485103163437ZM672.5987467241774 266.5919676420824L672.5987467241774 384.75030662510187L659.9714859609458 384.75030662510187L659.9714859609458 266.5919676420824L672.5987467241774 266.5919676420824ZM731.0169224212219 371.6216022936552L756.7956804053645 304.01789214249095L769.5824913948463 304.01789214249095L731.1764726474721 399.0186554297643Q727.8942965646105 407.2240956369184 722.9026537719251 411.9194308665677Q717.8882180897754 416.59197320675264 707.2211458204749 416.59197320675264L707.2211458204749 416.59197320675264L697.7165109138548 416.59197320675264L697.7165109138548 405.76535071120213L707.2211458204749 405.76535071120213Q712.8054037392326 405.76535071120213 715.928029595844 403.1213755333413Q719.0506554524554 400.50019324494485 720.8512937201365 395.4173788944022L720.8512937201365 395.4173788944022L724.6121204817489 385.06940707760225L691.7903596531323 304.01789214249095L705.2609573265437 304.01789214249095L731.0169224212219 371.6216022936552ZM801.4241579764972 371.9407027461557L801.4241579764972 384.75030662510187L788.9564474395158 384.75030662510187L788.9564474395158 266.5919676420824L801.5837082027474 266.5919676420824L801.5837082027474 318.78768451536837Q805.6864283063245 310.90134476071466 813.5727680609782 306.1376308626724Q821.4363149261675 301.3739169646302 831.1232929485022 301.3739169646302L831.1232929485022 301.3739169646302Q842.2918087860176 301.3739169646302 850.8163494456721 306.95817488338787Q859.3636829947911 312.5424328021455 864.2869471190836 322.2977894928732Q869.210211243376 332.07593907306523 869.210211243376 344.3840993837964L869.210211243376 344.3840993837964Q869.210211243376 356.8518099207778 864.104604003369 366.53878794311254Q859.0217896528263 376.2257659654473 850.2465272090642 381.78723099474064Q841.4712647653022 387.3714889134983 830.1431987015367 387.3714889134983L830.1431987015367 387.3714889134983Q820.6157709054521 387.3714889134983 813.0713244927631 383.20039014152826Q805.5268780800742 379.0064984800939 801.4241579764972 371.9407027461557L801.4241579764972 371.9407027461557ZM801.5837082027474 346.68618121969246L801.5837082027474 346.68618121969246L801.5837082027474 357.011360147028Q804.5467838331086 365.71824392239716 811.7721297932972 371.05178005704727Q818.9746828640212 376.3853161916975 828.3425604338556 376.3853161916975L828.3425604338556 376.3853161916975Q836.5480006410097 376.3853161916975 842.7020807963753 372.2825960881204Q848.8561609517409 368.1798759845434 852.38905881871 360.9545300243549Q855.8991637962149 353.72918406416636 855.8991637962149 344.3840993837964L855.8991637962149 344.3840993837964Q855.8991637962149 335.01622181396215 852.5486090449604 327.81366874323794Q849.1752614042414 320.5883227830494 843.180731475126 316.4856026794723Q837.2089944354749 312.38288257589534 829.3226546808212 312.38288257589534L829.3226546808212 312.38288257589534Q821.2767646999173 312.38288257589534 815.0543058761588 316.7363244635799Q808.8090541629359 321.0669734618001 805.2077776275738 328.7937629902035Q801.5837082027474 336.4977596291427 801.5837082027474 346.68618121969246ZM962.2507860367181 336.8396529711074L962.2507860367181 384.75030662510187L949.6235252734864 384.75030662510187L949.6235252734864 338.29839789682376Q949.6235252734864 325.5115869073419 944.2899891388363 319.0156134100115Q938.9564530041861 312.5424328021455 929.9304687763165 312.5424328021455L929.9304687763165 312.5424328021455Q923.3661166105933 312.5424328021455 917.6223084655853 316.2348808953649Q911.8785003205774 319.92732898858424 908.254430895751 327.8820474116309Q904.653154360389 335.8367658346775 904.653154360389 348.4868194873735L904.653154360389 348.4868194873735L904.653154360389 384.75030662510187L892.003100707693 384.75030662510187L892.003100707693 304.01789214249095L904.4936041341388 304.01789214249095L904.4936041341388 320.5883227830494Q908.4139811220012 310.0808007399993 916.1407706504048 305.72735885231475Q923.844767289344 301.3739169646302 932.3921008384627 301.3739169646302L932.3921008384627 301.3739169646302Q946.3413491906248 301.3739169646302 954.2960676136713 310.49107275035703Q962.2507860367181 319.60822853608386 962.2507860367181 336.8396529711074L962.2507860367181 336.8396529711074ZM1001.1354554628429 371.9407027461557L1001.1354554628429 384.75030662510187L988.6677449258614 384.75030662510187L988.6677449258614 266.5919676420824L1001.3177985785574 266.5919676420824L1001.3177985785574 318.78768451536837Q1005.4205186821345 310.90134476071466 1013.2840655473238 306.1376308626724Q1021.1704053019776 301.3739169646302 1030.8573833243122 301.3739169646302L1030.8573833243122 301.3739169646302Q1042.0031062723633 301.3739169646302 1050.550439821482 306.95817488338787Q1059.0749804811367 312.5424328021455 1063.9982446054291 322.2977894928732Q1068.9215087297216 332.07593907306523 1068.9215087297216 344.3840993837964L1068.9215087297216 344.3840993837964Q1068.9215087297216 356.8518099207778 1063.838694379179 366.53878794311254Q1058.7558800286363 376.2257659654473 1049.95782469541 381.78723099474064Q1041.1825622516478 387.3714889134983 1029.8544961878824 387.3714889134983L1029.8544961878824 387.3714889134983Q1020.3498612812621 387.3714889134983 1012.8054148685733 383.20039014152826Q1005.23817556642 379.0064984800939 1001.1354554628429 371.9407027461557L1001.1354554628429 371.9407027461557ZM1001.3177985785574 346.68618121969246L1001.3177985785574 346.68618121969246L1001.3177985785574 357.011360147028Q1004.2580813194543 365.71824392239716 1011.4834272796428 371.05178005704727Q1018.7087732398313 376.3853161916975 1028.0538579202012 376.3853161916975L1028.0538579202012 376.3853161916975Q1036.2592981273554 376.3853161916975 1042.413378282721 372.2825960881204Q1048.5674584380865 368.1798759845434 1052.1003563050558 360.9545300243549Q1055.6332541720249 353.72918406416636 1055.6332541720249 344.3840993837964L1055.6332541720249 344.3840993837964Q1055.6332541720249 335.01622181396215 1052.2599065313061 327.81366874323794Q1048.9093517800513 320.5883227830494 1042.914821850936 316.4856026794723Q1036.9202919218205 312.38288257589534 1029.033952167167 312.38288257589534L1029.033952167167 312.38288257589534Q1021.0108550757272 312.38288257589534 1014.7656033625044 316.7363244635799Q1008.5203516492816 321.0669734618001 1004.9190751139195 328.7937629902035Q1001.3177985785574 336.4977596291427 1001.3177985785574 346.68618121969246Z " fill="#ff1f1f" transform="matrix(0.8185820297118414,0,0,0.8185820297118414,0,20.378939548439376)"/></g></svg>